<?xml version="1.0" standalone="yes"?>
<svg xmlns="http://www.w3.org/2000/svg" width="100" height="100">
<path style="fill:#f1f1f1; stroke:none;" d="M0 0L0 40C3.85033 32.9266 6.14676 26.9806 12 21C10.5881 18.351 10.4123 15.9393 10 13C13.4744 12.4235 14.4235 11.4744 15 8C26.8409 8 41.6358 10.3591 53 7L52 4C54.7845 4.05834 57.2908 4.35213 60 5C60.5618 3.1994 60.8241 1.87817 61 0L0 0z"/>
<path style="fill:#f2f0f1; stroke:none;" d="M61 0L60 5C57.271 4.18977 54.8495 4.02084 52 4C52 5.79683 52.0143 5.52147 53 7C41.0965 9.83397 27.2049 8 15 8C14.0658 11.1266 13.1266 12.0658 10 13L10 20C15.6877 18.9861 20.3188 15.0791 26 14.213C37.8146 12.4118 43.7853 19.6188 54 23C55.3065 19.4433 55.9639 15.2533 58.0085 12.0432C62.3094 5.29033 69.8546 5.00079 77 5L77 0L61 0z"/>
<path style="fill:#f1f1f1; stroke:none;" d="M77 0C77.2675 8.24155 83.1109 9.1785 87.4869 15.0432C90.7815 19.4586 90.9167 24.8315 90 30C91.4448 30.4915 92.777 30.7986 94.0247 31.7415C102.924 38.4665 93.2048 44.3023 90 51C93.5335 52.7551 96.7008 54.8543 100 57L100 0L77 0z"/>
<path style="fill:#a7d893; stroke:none;" d="M66.6667 5.33334C66.2222 5.77776 67.2778 5.72222 67.3333 5.66666C67.7778 5.22223 66.7222 5.27776 66.6667 5.33334z"/>
<path style="fill:#7bcb63; stroke:none;" d="M68 5C69.769 5.77894 71.0359 5.91241 73 6C71.231 5.22107 69.9641 5.08759 68 5z"/>
<path style="fill:#d1f2c3; stroke:none;" d="M73.6667 5.33334C73.2222 5.77777 74.2778 5.72221 74.3333 5.66666C74.7778 5.22221 73.7222 5.27779 73.6667 5.33334z"/>
<path style="fill:#e6f2e0; stroke:none;" d="M75 5C76.6238 7.04356 77.6428 7.89645 80 9C78.3761 6.95641 77.3572 6.10356 75 5z"/>
<path style="fill:#4bc52a; stroke:none;" d="M61 9C62.7447 9.89003 64.125 10.4529 66 11L68 6C65.03 6.38775 63.2616 7.03688 61 9z"/>
<path style="fill:#59e033; stroke:none;" d="M78 9C75.4688 6.62827 70.6519 4.45396 67.6227 7.59876C65.5103 9.79176 67.1059 12.6719 70.0193 12.2037C72.7918 11.7581 75.2283 9.68819 78 9z"/>
<path style="fill:#a5e594; stroke:none;" d="M75 6L76 7L75 6z"/>
<path style="fill:#7fb973; stroke:none;" d="M62 7L63 8L62 7z"/>
<path style="fill:#90be8b; stroke:none;" d="M60 8L61 9L60 8z"/>
<path style="fill:#2f7d28; stroke:none;" d="M59 9L58 14C59.1952 12.7772 59.3164 12.58 60 11C64.8726 12.6529 69.217 15.8994 74 18C71.1567 13.2811 64.3371 9.9661 59 9z"/>
<path style="fill:#4bc225; stroke:none;" d="M74 9C76.0132 10.2247 77.6585 10.6453 80 11C77.9433 9.41808 76.6125 9.17436 74 9z"/>
<path style="fill:#b7e3a2; stroke:none;" d="M79.6667 9.33334C79.2222 9.77778 80.2778 9.72219 80.3333 9.66666C80.7778 9.22223 79.7222 9.27778 79.6667 9.33334z"/>
<path style="fill:#8bb97b; stroke:none;" d="M58 10L59 11L58 10z"/>
<path style="fill:#359c19; stroke:none;" d="M68 13C71.6004 15.189 73.8722 13.2671 77 11C73.7564 10.1098 71.0485 11.7588 68 13z"/>
<path style="fill:#65e735; stroke:none;" d="M78 28C80.5816 27.9997 83.3979 28.2807 85.9414 27.7716C93.989 26.1607 88.4556 12.769 82.9823 10.9522C79.054 9.6482 74.5508 12.7721 74.7731 17.0046C74.9605 20.5717 77.2508 24.4276 78 28z"/>
<path style="fill:#5f935f; stroke:none;" d="M60 11L61 12L60 11z"/>
<path style="fill:#9ec2a3; stroke:none;" d="M61.6667 11.3333C61.2222 11.7778 62.2778 11.7222 62.3333 11.6667C62.7778 11.2222 61.7222 11.2778 61.6667 11.3333z"/>
<path style="fill:#4ec824; stroke:none;" d="M75 11L72 15C74.8994 14.4784 75.5412 13.5963 77 11L75 11z"/>
<path style="fill:#a1e587; stroke:none;" d="M84 11L85 12L84 11z"/>
<path style="fill:#a6ca9f; stroke:none;" d="M57 12L58 13L57 12z"/>
<path style="fill:#d2d5db; stroke:none;" d="M58 16L57 14C54.7169 18.6464 54.385 23.0997 56 28C58.3864 22.732 58.4524 18.3529 65 17L64 12C60.7929 12.4969 59.5564 13.1504 58 16z"/>
<path style="fill:#6e9871; stroke:none;" d="M64 12L65 13L64 12z"/>
<path style="fill:#5e8857; stroke:none;" d="M57 13L57 16C57.6961 14.4463 57.6961 14.5537 57 13z"/>
<path style="fill:#bdc9d1; stroke:none;" d="M64 13L65 22C68.2034 18.5196 67.4886 15.9368 64 13z"/>
<path style="fill:#6f9a73; stroke:none;" d="M65 13L66 14L65 13z"/>
<path style="fill:#d4f2cf; stroke:none;" d="M23.6667 14.3333C23.2222 14.7778 24.2778 14.7222 24.3333 14.6667C24.7778 14.2222 23.7222 14.2778 23.6667 14.3333z"/>
<path style="fill:#a6e19f; stroke:none;" d="M25.6667 14.3333C25.2222 14.7778 26.2778 14.7222 26.3333 14.6667C26.7778 14.2222 25.7222 14.2778 25.6667 14.3333z"/>
<path style="fill:#7ece71; stroke:none;" d="M27 14C29.6127 15.0977 32.1645 14.9928 35 15C32.3873 13.9023 29.8355 14.0072 27 14z"/>
<path style="fill:#c9f2c0; stroke:none;" d="M35.6667 14.3333C35.2222 14.7778 36.2778 14.7222 36.3333 14.6667C36.7778 14.2222 35.7222 14.2778 35.6667 14.3333z"/>
<path style="fill:#668c63; stroke:none;" d="M66 14L67 15L66 14z"/>
<path style="fill:#93cf85; stroke:none;" d="M21.6667 15.3333C21.2222 15.7778 22.2778 15.7222 22.3333 15.6667C22.7778 15.2222 21.7222 15.2778 21.6667 15.3333z"/>
<path style="fill:#54d540; stroke:none;" d="M22 20C28.6548 18.4237 34.0738 17 41 17C35.5386 14.0965 23.699 12.4335 22 20z"/>
<path style="fill:#84d373; stroke:none;" d="M37.6667 15.3333C37.2222 15.7778 38.2778 15.7222 38.3333 15.6667C38.7777 15.2223 37.7222 15.2778 37.6667 15.3333z"/>
<path style="fill:#d0f5c1; stroke:none;" d="M39 15C40.2483 15.6848 40.5484 15.7488 42 16C40.7516 15.3152 40.4516 15.2512 39 15z"/>
<path style="fill:#a6ea87; stroke:none;" d="M88.3333 15.6667C88.2778 15.7222 88.2223 16.7778 88.6667 16.3333C88.7222 16.2778 88.7778 15.2222 88.3333 15.6667z"/>
<path style="fill:#49c43e; stroke:none;" d="M12 27L16 26C17.1729 22.0965 19.5498 20.9426 23 19L23 16C17.1454 16.9278 14.3052 21.911 12 27z"/>
<path style="fill:#5edf40; stroke:none;" d="M27 18C31.6583 19.9547 40.0995 20.0618 45 19C46.4292 23.8443 50.6132 27.1592 52.3256 31.9853C53.7366 35.9618 52.3609 40.2366 56 43C55.9994 37.4523 56.2615 31.1061 53.686 26.0039C48.537 15.8037 36.6575 15.7008 27 18z"/>
<path style="fill:#6e8978; stroke:none;" d="M68 16L69 17L68 16z"/>
<path style="fill:#d2d5de; stroke:none;" d="M69 16C64.2366 23.602 56.3301 36.0241 69.01 40.6952C70.9704 41.4174 72.9463 41.7178 75 42C73.9747 37.2151 66.1339 38.9336 63.8056 33.8889C61.8455 29.642 67.5116 22.8091 69 19C70.6661 20.8017 71.8455 21.8903 74 23L71 16L69 16z"/>
<path style="fill:#8ab28d; stroke:none;" d="M71 16L72 17L71 16z"/>
<path style="fill:#74aa71; stroke:none;" d="M17 17L18 18L17 17z"/>
<path style="fill:#2b312f; stroke:none;" d="M59 21L63 20L63 24C64.6348 21.5143 64.5547 19.9167 64 17C61.2183 17.8125 60.3726 18.4527 59 21z"/>
<path style="fill:#8eb591; stroke:none;" d="M72 17L73 18L72 17z"/>
<path style="fill:#92c788; stroke:none;" d="M15 18L16 19L15 18z"/>
<path style="fill:#59bb45; stroke:none;" d="M13 45C16.0874 39.8106 13.1425 30.7698 12 25C14.4103 23.3645 15.9171 21.0467 18 19C14.3356 18.4972 11.4912 21.7557 9.98843 25.0039C7.05373 31.3473 9.44443 39.5104 13 45z"/>
<path style="fill:#9398a0; stroke:none;" d="M59 18L60 19L59 18z"/>
<path style="fill:#555a5b; stroke:none;" d="M64 18L65 19L64 18z"/>
<path style="fill:#c1d2cc; stroke:none;" d="M72 18C72.9391 20.6374 73.5797 21.6182 76 23C74.8369 20.7833 73.9136 19.6058 72 18z"/>
<path style="fill:#88b58a; stroke:none;" d="M73 18L74 19L73 18z"/>
<path style="fill:#609c5f; stroke:none;" d="M74.3333 18.6667C74.2778 18.7222 74.2222 19.7778 74.6667 19.3333C74.7222 19.2778 74.7778 18.2222 74.3333 18.6667z"/>
<path style="fill:#a1e682; stroke:none;" d="M89.3333 18.6667C89.2778 18.7222 89.2222 19.7778 89.6667 19.3333C89.7222 19.2778 89.7778 18.2222 89.3333 18.6667z"/>
<path style="fill:#bbe1b3; stroke:none;" d="M13 19L14 20L13 19z"/>
<path style="fill:#6fe949; stroke:none;" d="M24 19L25 23L24 24L19 23L22 21C18.5358 20.3159 15.0708 22.8989 17.7222 26.5301C19.4714 28.9256 22.2627 29.6271 25 30C25.6839 32.209 26.0799 32.7034 28 34L27 36L33 39C32.0401 45.3663 34.5972 48.0257 39 52C42.7326 51.3124 48.3999 50.4359 51.6667 48.5C54.4728 46.8371 52.7172 44.4236 56 44C53.4624 39.7881 53.9504 35.4783 52.3364 31C50.7039 26.4704 47.0435 23.2494 45 19C38.163 19.7637 30.9081 19 24 19z"/>
<path style="fill:#9ee391; stroke:none;" d="M47 19L48 20L47 19z"/>
<path style="fill:#e4e8ed; stroke:none;" d="M69 19C65.2442 25.3758 58.9693 35.9856 70.1651 38.7006C72.0371 39.1546 74.0919 38.9932 76 39L76 35C64.0788 39.1995 73.1461 23.6324 69 19z"/>
<path style="fill:#3f8d33; stroke:none;" d="M75.3333 19.6667C75.2778 19.7222 75.2222 20.7778 75.6667 20.3333C75.7222 20.2778 75.7778 19.2222 75.3333 19.6667z"/>
<path style="fill:#9ace99; stroke:none;" d="M12 20L13 21L12 20z"/>
<path style="fill:#47ad37; stroke:none;" d="M22.6667 20.3333C22.2222 20.7778 23.2778 20.7222 23.3333 20.6667C23.7778 20.2222 22.7222 20.2778 22.6667 20.3333z"/>
<path style="fill:#434b54; stroke:none;" d="M58 20L59 21L58 20z"/>
<path style="fill:#838b8d; stroke:none;" d="M61 20C61.5451 21.6352 61.3648 21.4549 63 22L63 20L61 20z"/>
<path style="fill:#4fae43; stroke:none;" d="M5 30C6.41619 29.5279 6.81368 29.1863 8 28C4.64925 37.3814 6.0635 45.5423 15 51C13.2678 43.0978 7.31137 36.5489 9.31327 28.0015C9.92268 25.3996 11.6011 23.2239 13 21C8.94926 22.9753 6.74619 25.879 5 30z"/>
<path style="fill:#287e19; stroke:none;" d="M21 21L19 22C20.482 22.7912 21.7964 22.8698 21 21z"/>
<path style="fill:#114c04; stroke:none;" d="M22 21L22 23L24 23L24 21L22 21z"/>
<path style="fill:#2d8e1d; stroke:none;" d="M24.3333 21.6667C24.2778 21.7222 24.2222 22.7778 24.6667 22.3333C24.7222 22.2778 24.7778 21.2222 24.3333 21.6667z"/>
<path style="fill:#020c2d; stroke:none;" d="M58 21C58.0209 23.8495 58.1898 26.271 59 29L61 29L62 28L62 26C60.2294 24.1382 60.0271 23.5805 60 21L58 21z"/>
<path style="fill:#254780; stroke:none;" d="M60 21L59 25L62 25C61.4892 23.0478 61.2667 22.5431 60 21z"/>
<path style="fill:#c4d0dc; stroke:none;" d="M61 21L62 22L61 21z"/>
<path style="fill:#60c03f; stroke:none;" d="M75.6667 21.3333C75.2222 21.7778 76.2778 21.7222 76.3333 21.6667C76.7778 21.2222 75.7222 21.2778 75.6667 21.3333z"/>
<path style="fill:#afe8a1; stroke:none;" d="M51 22L52 23L51 22z"/>
<path style="fill:#b5cabd; stroke:none;" d="M54 22C53.7817 23.6865 53.7761 24.3161 54 26C54.7102 24.2405 54.7102 23.7595 54 22z"/>
<path style="fill:#474e5d; stroke:none;" d="M57.3333 22.6667C57.2778 22.7222 57.2222 23.7778 57.6667 23.3333C57.7222 23.2778 57.7778 22.2222 57.3333 22.6667z"/>
<path style="fill:#263652; stroke:none;" d="M62 22C61.3164 23.58 61.1952 23.7772 60 25C62.5767 25.9757 62.9524 24.139 62 22z"/>
<path style="fill:#717a85; stroke:none;" d="M64 22L65 23L64 22z"/>
<path style="fill:#4e923e; stroke:none;" d="M76 22L75 24L77 24C77 22.1468 77.2997 22.6498 76 22z"/>
<path style="fill:#b7eaa0; stroke:none;" d="M90 22L90 28C90.9511 25.7147 90.9511 24.2853 90 22z"/>
<path style="fill:#3a9a27; stroke:none;" d="M22.6667 23.3333C22.2222 23.7778 23.2778 23.7222 23.3333 23.6667C23.7778 23.2222 22.7222 23.2778 22.6667 23.3333z"/>
<path style="fill:#cce5d3; stroke:none;" d="M52.6667 23.3333C52.2222 23.7778 53.2778 23.7222 53.3333 23.6667C53.7778 23.2222 52.7222 23.2778 52.6667 23.3333z"/>
<path style="fill:#8c9299; stroke:none;" d="M72 23L73 24L72 23z"/>
<path style="fill:#2d3432; stroke:none;" d="M73 23L72 27C73.7141 27.1261 74.4329 27.3024 76 28L77 24L73 23z"/>
<path style="fill:#212d41; stroke:none;" d="M57.3333 24.6667C57.2778 24.7222 57.2222 25.7778 57.6667 25.3333C57.7222 25.2778 57.7778 24.2222 57.3333 24.6667z"/>
<path style="fill:#7a869c; stroke:none;" d="M63 24L64 25L63 24z"/>
<path style="fill:#6e6f77; stroke:none;" d="M71 24L72 25L71 24z"/>
<path style="fill:#8dbc8a; stroke:none;" d="M7 25L8 26L7 25z"/>
<path style="fill:#6ada47; stroke:none;" d="M16 25C15.4682 28.1941 15.4299 30.8367 18 33L17 36C19.3233 37.9058 20.194 39.108 21 42C27.724 41.2503 27.9136 45.9213 31.9784 50.0224C34.1713 52.2348 36.8723 53.7056 39 56C43.4538 55.4495 46.5423 55.7881 48 51C53.6352 50.815 55.7117 48.3848 57 43L53 44L54 47L39 52C35.5092 47.3292 32.7548 45.4761 33 39L27 36L28 34C26.4018 32.519 25.8917 31.9385 25 30C21.3831 29.1473 18.9015 27.2664 16 25z"/>
<path style="fill:#8f949d; stroke:none;" d="M70 25L71 26L70 25z"/>
<path style="fill:#07112a; stroke:none;" d="M71 25C70.0767 26.9299 69.1055 28.7108 69.3318 30.946C69.6148 33.7408 72.7477 36.1176 74.9761 33.3966C76.1604 31.9505 75.9433 29.7262 76 28C74.3888 29.792 73.148 30.9201 71 32C71.3021 29.4926 71.7408 27.3934 71 25z"/>
<path style="fill:#4bae1f; stroke:none;" d="M77 25L77 38C81.6744 37.9582 86.2973 37.9674 88 33C84.4873 34.5719 81.9321 35.8744 78 36C78 32.2998 78.4403 28.4324 77 25z"/>
<path style="fill:#adceaa; stroke:none;" d="M6 26L7 27L6 26z"/>
<path style="fill:#69d041; stroke:none;" d="M13 26C11.8081 35.6504 16.1748 40.7131 20 49C22.6812 49 22.3435 50.7784 24.1667 52.6667C27.2323 55.8418 30.9179 58.5796 35.1667 59.8333C41.8478 61.8048 55.6271 56.9165 57.8333 49.8333C59.5067 44.461 58.1143 35.0215 56 30C53.6518 37.6344 60.5368 50.0451 48 51C45.8839 55.1026 43.166 54.9614 39 56C37.1922 53.0727 34.2995 51.7865 31.9784 49.2948C27.9864 45.0093 27.7938 40.5874 21 42C20.5031 38.7929 19.8496 37.5564 17 36C17.9857 34.5215 18 34.7968 18 33C16.0899 30.5991 15.5573 27.7948 13 26z"/>
<path style="fill:#49c129; stroke:none;" d="M54 26C54.547 27.875 55.11 29.2553 56 31C56.375 28.581 55.6927 27.7818 54 26z"/>
<path style="fill:#475b76; stroke:none;" d="M57 26C57.8387 28.6265 58.3735 29.1613 61 30L57 26z"/>
<path style="fill:#737d8d; stroke:none;" d="M62 26L63 27L62 26z"/>
<path style="fill:#aeb5b7; stroke:none;" d="M73 26L74 27L73 26z"/>
<path style="fill:#5d6773; stroke:none;" d="M74.3333 26.6667C74.2778 26.7222 74.2222 27.7778 74.6667 27.3333C74.7222 27.2778 74.7778 26.2222 74.3333 26.6667z"/>
<path style="fill:#7f8590; stroke:none;" d="M69 27L70 28L69 27z"/>
<path style="fill:#2c4b97; stroke:none;" d="M72 27C72.168 29.4025 72.1969 30.4602 74 32C73.6137 29.8574 73.2549 28.7505 72 27z"/>
<path style="fill:#e0eef5; stroke:none;" d="M73 27L74 28L73 27z"/>
<path style="fill:#0a2e16; stroke:none;" d="M76 27L76 32C76.8299 29.9695 76.8299 29.0305 76 27z"/>
<path style="fill:#56c929; stroke:none;" d="M88 27C84.65 27.9904 81.486 27.9981 78 28L78 36C83.2455 35.9381 90.5191 33.6617 88 27z"/>
<path style="fill:#6ac340; stroke:none;" d="M89 27L89 31C89.7102 29.2405 89.7102 28.7595 89 27z"/>
<path style="fill:#439c3b; stroke:none;" d="M7 28C0.25278 34.709 1 43.1124 1 52C2.60119 48.4425 2.42411 45.1877 6 43C6 38.505 8.10302 31.9713 7 28z"/>
<path style="fill:#94cf8e; stroke:none;" d="M56 28L57 29L56 28z"/>
<path style="fill:#4a5569; stroke:none;" d="M61 28L62 29L61 28z"/>
<path style="fill:#233f7a; stroke:none;" d="M71 28L71 32C71.7102 30.2405 71.7102 29.7595 71 28z"/>
<path style="fill:#7388ab; stroke:none;" d="M73 28L74 29L73 28z"/>
<path style="fill:#273e6a; stroke:none;" d="M74 28L74 31C74.6961 29.4463 74.6961 29.5537 74 28z"/>
<path style="fill:#aad6a5; stroke:none;" d="M4 29L5 30L4 29z"/>
<path style="fill:#acd1b7; stroke:none;" d="M57 29L58 30L57 29z"/>
<path style="fill:#bfcec7; stroke:none;" d="M61 29C60.4549 30.6352 60.6352 30.4549 59 31L59 33C60.6078 35.076 60.9668 37.7287 62.5988 39.7724C65.4029 43.284 69.9552 42.9884 74 43C70.8169 40.6942 66.3751 40.0049 63.8935 36.7361C62.1812 34.4807 62.0937 31.5118 61 29z"/>
<path style="fill:#7cb96a; stroke:none;" d="M57 30L58 31L57 30z"/>
<path style="fill:#abb9c5; stroke:none;" d="M58 32L61 31C59.2218 30.0445 58.9786 30.2338 58 32z"/>
<path style="fill:#8b8f9f; stroke:none;" d="M68 30L68 33C68.6961 31.4463 68.6961 31.5537 68 30z"/>
<path style="fill:#e3a28f; stroke:none;" d="M90 30C91.2484 30.6848 91.5484 30.7488 93 31C91.7516 30.3152 91.4516 30.2512 90 30z"/>
<path style="fill:#a4cc9d; stroke:none;" d="M3 31L4 32L3 31z"/>
<path style="fill:#4bbc26; stroke:none;" d="M57 31L58 35C58.553 32.9922 58.303 32.6676 57 31z"/>
<path style="fill:#f85d30; stroke:none;" d="M89 33C94.3781 32.868 96.6116 35.8655 97 41C99.1286 35.8667 93.8631 27.5292 89 33z"/>
<path style="fill:#dd8e70; stroke:none;" d="M94 31L95 32L94 31z"/>
<path style="fill:#947f21; stroke:none;" d="M88 32L88 35C88.6961 33.4463 88.6961 33.5537 88 32z"/>
<path style="fill:#f1411a; stroke:none;" d="M90 32C89.185 33.6959 88.4338 35.1151 88.2431 37.0247C88.1148 38.3086 88.1825 39.7345 88.537 40.9807C91.4706 51.2935 101.185 39.109 94.7068 33.9375C93.3765 32.8756 91.5776 32.5004 90 32z"/>
<path style="fill:#b3d9af; stroke:none;" d="M2 33L3 34L2 33z"/>
<path style="fill:#60ce29; stroke:none;" d="M57 33C57.0615 39.9627 58.2991 46.023 57 53L61 53L62 57C63.1237 53.3467 62.0107 48.8809 62 45L70 45C67.8962 43.9775 65.2785 43.6173 63.4144 42.1427C60.5669 39.8905 59.3671 35.7517 57 33z"/>
<path style="fill:#a8bcb8; stroke:none;" d="M59 33L60 36C60.6848 34.7516 60.7488 34.4516 61 33L59 33z"/>
<path style="fill:#3c5274; stroke:none;" d="M69 33C69.8387 35.6265 70.3735 36.1613 73 37L69 33z"/>
<path style="fill:#88bb7c; stroke:none;" d="M76 33L75 35L77 35C77 33.1468 77.2997 33.6498 76 33z"/>
<path style="fill:#549f37; stroke:none;" d="M59 34L60 38C60.393 36.076 60.1455 35.6404 59 34z"/>
<path style="fill:#162651; stroke:none;" d="M71 35C72.2484 35.6848 72.5484 35.7488 74 36C72.7516 35.3152 72.4516 35.2512 71 35z"/>
<path style="fill:#606d88; stroke:none;" d="M74 35L75 36L74 35z"/>
<path style="fill:#649e4c; stroke:none;" d="M76.3333 35.6667C76.2778 35.7222 76.2222 36.7778 76.6667 36.3333C76.7222 36.2778 76.7778 35.2222 76.3333 35.6667z"/>
<path style="fill:#f5cebe; stroke:none;" d="M98 35L98 39C98.7102 37.2405 98.7102 36.7595 98 35z"/>
<path style="fill:#88bc80; stroke:none;" d="M1.33333 36.6667C1.27777 36.7222 1.22222 37.7778 1.66667 37.3333C1.72222 37.2778 1.77778 36.2222 1.33333 36.6667z"/>
<path style="fill:#8192ac; stroke:none;" d="M73 36L74 37L73 36z"/>
<path style="fill:#718218; stroke:none;" d="M86 36L86 39C86.6961 37.4463 86.6961 37.5537 86 36z"/>
<path style="fill:#cb5d1d; stroke:none;" d="M87 36L87 40C87.7102 38.2405 87.7102 37.7595 87 36z"/>
<path style="fill:#38940b; stroke:none;" d="M76 37C75.2229 39.4887 74.1828 41.6719 73 44C78.2052 43.9994 83.2392 44.8003 85 39C81.1361 39.6744 78.9248 39.778 76 37z"/>
<path style="fill:#419f14; stroke:none;" d="M77 38L77 40C79.8956 39.9718 82.408 39.7178 85 41C85.683 39.494 85.8259 38.6852 86 37C82.9749 37.5621 80.0779 37.9364 77 38z"/>
<path style="fill:#3f991a; stroke:none;" d="M61.3333 39.6667C61.2778 39.7222 61.2222 40.7778 61.6667 40.3333C61.7222 40.2778 61.7778 39.2222 61.3333 39.6667z"/>
<path style="fill:#94bb88; stroke:none;" d="M75 39L76 40L75 39z"/>
<path style="fill:#6bdd36; stroke:none;" d="M86 39C80.9144 45.6753 69.8958 44.9346 62 45C62.0025 48.7857 62.1205 52.306 63 56L72 53C69.3103 51.5369 67.6236 50.6725 66 48C74.6535 46.3562 80.2267 44.8025 89 48C88.8324 44.378 88.4034 41.7629 86 39z"/>
<path style="fill:#abd2a1; stroke:none;" d="M0 40L0 43C0.696101 41.4463 0.696099 41.5537 0 40z"/>
<path style="fill:#6ba358; stroke:none;" d="M62 40L63 41L62 40z"/>
<path style="fill:#429023; stroke:none;" d="M6 41C-3.37298 52.298 5.67739 68.226 18 73C15.3217 61.1722 25.665 65.919 33 66C27.8871 60.2446 18.9725 60.2257 13.2238 54.9645C9.45848 51.5185 8.98107 45.164 6 41z"/>
<path style="fill:#53b01e; stroke:none;" d="M62 41C63.6747 43.2209 65.2566 43.5618 68 44C66.0512 42.4267 64.4122 41.7091 62 41z"/>
<path style="fill:#b78a29; stroke:none;" d="M88.3333 41.6667C88.2778 41.7222 88.2222 42.7778 88.6667 42.3333C88.7222 42.2778 88.7778 41.2222 88.3333 41.6667z"/>
<path style="fill:#66c337; stroke:none;" d="M14 42C14.7373 46.6501 17.7047 49.0553 20.9352 52.2816C30.4835 61.8178 38.5842 63.8968 51 58C45.8435 56.7291 40.797 60.9534 35.2855 59.2708C29.1282 57.3911 25.6327 50.2446 20 49L17 42L14 42z"/>
<path style="fill:#ca7158; stroke:none;" d="M96 42L97 43L96 42z"/>
<path style="fill:#81bb7b; stroke:none;" d="M0 43L0 47C0.710207 45.2405 0.710208 44.7595 0 43z"/>
<path style="fill:#90c772; stroke:none;" d="M68 43C69.769 43.7789 71.0359 43.9124 73 44C71.231 43.2211 69.9641 43.0876 68 43z"/>
<path style="fill:#a16415; stroke:none;" d="M89.3333 44.6667C89.2777 44.7223 89.2222 45.7778 89.6667 45.3333C89.7222 45.2778 89.7778 44.2222 89.3333 44.6667z"/>
<path style="fill:#76f13e; stroke:none;" d="M66 48C68.2851 53.6838 73.0448 50.9989 78 51.1289C81.9911 51.2336 86.0687 52.3189 90 53C88.2205 41.7463 73.3871 45.7284 66 48z"/>
<path style="fill:#e5b7aa; stroke:none;" d="M94 45L95 46L94 45z"/>
<path style="fill:#5fb32e; stroke:none;" d="M14 46C16.2475 58.9656 32.257 67.8201 44.9105 64.446C51.3652 62.7248 55.028 57.8054 60 54L56 51C54.1685 53.4598 52.1692 55.6487 49.7137 57.5324C36.4489 67.7088 24.3421 56.4878 16 46L14 46z"/>
<path style="fill:#82892f; stroke:none;" d="M89 46C89.4057 48.0924 89.2167 48.0197 91 49C90.3087 47.6116 90.0154 47.1394 89 46z"/>
<path style="fill:#af3614; stroke:none;" d="M90 48C91.58 47.3164 91.7772 47.1952 93 46C90.9076 46.4057 90.9802 46.2167 90 48z"/>
<path style="fill:#a2d196; stroke:none;" d="M0 47L0 50C0.696101 48.4463 0.696099 48.5537 0 47z"/>
<path style="fill:#52a631; stroke:none;" d="M9 47C11.2329 54.0556 14.6066 58.0552 22 60C20.0529 54.5536 14.2038 49.433 9 47z"/>
<path style="fill:#f1f1f1; stroke:none;" d="M0 50L0 100L11 100C9.17224 96.7758 5.49743 92.9633 6.24228 89C7.14643 84.1891 13.8228 77.5875 19 78.1914C21.5258 78.486 23.6516 80.4306 26 81.2809C28.3461 82.1303 31.6773 81.9556 33.1836 84.3179C35.3974 87.7896 30.3607 95.8948 30 100C38.696 99.975 46.6832 97.4962 48 88C42.6391 85.6574 35.751 82.2957 33 77C22.1591 76.775 12.2351 72.2098 6.10494 63C3.38516 58.9139 2.29901 54.2235 0 50z"/>
<path style="fill:#69e134; stroke:none;" d="M73 51C80.6588 54.311 87.6484 54.6867 92 63C96.3908 51.3967 80.1224 51.0047 73 51z"/>
<path style="fill:#b8ae6d; stroke:none;" d="M90 51L91 52L90 51z"/>
<path style="fill:#92c587; stroke:none;" d="M1.33333 52.6667C1.27777 52.7222 1.22223 53.7778 1.66667 53.3333C1.72222 53.2778 1.77778 52.2222 1.33333 52.6667z"/>
<path style="fill:#77d350; stroke:none;" d="M72 52C74.6127 53.0977 77.1645 52.9928 80 53C77.3873 51.9023 74.8355 52.0072 72 52z"/>
<path style="fill:#a4ad35; stroke:none;" d="M90.3333 52.6667C90.2778 52.7222 90.2222 53.7778 90.6667 53.3333C90.7222 53.2778 90.7778 52.2222 90.3333 52.6667z"/>
<path style="fill:#ef4a22; stroke:none;" d="M91 52C92.1488 57.5213 93.9524 62.2522 94 68C102.646 63.6391 98.8704 54.3459 91 52z"/>
<path style="fill:#eaa38e; stroke:none;" d="M93 52L94 53L93 52z"/>
<path style="fill:#50ba1e; stroke:none;" d="M60 53C57.9025 54.9261 56.755 56.2565 56 59L62 57C61.4038 55.4399 60.9114 54.3766 60 53z"/>
<path style="fill:#7fce5d; stroke:none;" d="M68 53C69.2484 53.6848 69.5484 53.7488 71 54C69.7516 53.3152 69.4516 53.2512 68 53z"/>
<path style="fill:#ddf8d0; stroke:none;" d="M71 53C73.8897 54.2129 76.8741 53.9983 80 54C77.1103 52.7871 74.1259 53.0017 71 53z"/>
<path style="fill:#a1df85; stroke:none;" d="M80.6667 53.3333C80.2222 53.7777 81.2778 53.7222 81.3333 53.6667C81.7778 53.2222 80.7222 53.2778 80.6667 53.3333z"/>
<path style="fill:#e5a286; stroke:none;" d="M95 53L96 54L95 53z"/>
<path style="fill:#bee9ad; stroke:none;" d="M67.6667 54.3333C67.2222 54.7778 68.2778 54.7222 68.3333 54.6667C68.7778 54.2222 67.7222 54.2778 67.6667 54.3333z"/>
<path style="fill:#f1f0f0; stroke:none;" d="M64 59C72.8631 57.8799 79.688 58.4036 88 62C87.8185 59.6138 87.6987 57.3874 85.6821 55.7407C80.8331 51.7814 66.0817 52.6666 64 59z"/>
<path style="fill:#8ccd3d; stroke:none;" d="M91.3333 55.6667C91.2778 55.7222 91.2222 56.7778 91.6667 56.3333C91.7222 56.2778 91.7778 55.2222 91.3333 55.6667z"/>
<path style="fill:#8dbd83; stroke:none;" d="M2 56L3 57L2 56z"/>
<path style="fill:#acdb95; stroke:none;" d="M63 56L64 57L63 56z"/>
<path style="fill:#a8e38a; stroke:none;" d="M87 56L88 57L87 56z"/>
<path style="fill:#a5962a; stroke:none;" d="M92.3333 56.6667C92.2778 56.7222 92.2222 57.7778 92.6667 57.3333C92.7222 57.2778 92.7778 56.2222 92.3333 56.6667z"/>
<path style="fill:#98ca81; stroke:none;" d="M61 57L62 58L61 57z"/>
<path style="fill:#e2e2e4; stroke:none;" d="M59 66C66.1309 67.3837 73.63 70.804 80.9853 70.2978C84.5695 70.0512 87.3921 67.501 91 67C90.9556 63.1733 90.7871 60.7285 88 58L88 62C84.0704 59.8109 79.5381 58.2889 75 58.0432C71.207 57.8379 67.3265 58.9233 64 57C59.4037 58.6899 59.0545 61.3953 59 66z"/>
<path style="fill:#ade798; stroke:none;" d="M88 57L89 58L88 57z"/>
<path style="fill:#e28165; stroke:none;" d="M99 57L99 63C99.9511 60.7147 99.9511 59.2853 99 57z"/>
<path style="fill:#47931a; stroke:none;" d="M57 58C53.2897 64.3167 45.6779 65.6224 39 67C47.2066 70.4359 56.3805 66.1971 59 58L57 58z"/>
<path style="fill:#73a65b; stroke:none;" d="M59 58L60 59L59 58z"/>
<path style="fill:#aae893; stroke:none;" d="M89 58L90 59L89 58z"/>
<path style="fill:#54a428; stroke:none;" d="M31 64C38.2705 69.4102 51.9786 66.3699 57 59C52.3315 60.1679 48.5449 63.3006 43.9606 64.4421C39.7989 65.4785 35.2342 64.0874 31 64z"/>
<path style="fill:#8fe574; stroke:none;" d="M90 59L91 60L90 59z"/>
<path style="fill:#8bb17f; stroke:none;" d="M58 60L59 61L58 60z"/>
<path style="fill:#959e2d; stroke:none;" d="M93 60L93 68C94.1614 65.2301 94.1614 62.7699 93 60z"/>
<path style="fill:#c5c6c8; stroke:none;" d="M58 61C58.4985 77.4314 82.4677 82.3121 91 69C84.6792 71.5276 79.1251 75.5501 72.0008 73.1458C67.15 71.5088 64.0001 67.2538 59 66C58.9124 64.0359 58.7789 62.769 58 61z"/>
<path style="fill:#d4d4d6; stroke:none;" d="M91 61L91 67C86.6973 67.3007 83.3163 69.9881 78.9992 70.0216C73.1548 70.0669 67.8357 67.2667 62 67C67.7996 72.1446 74.0215 75.5092 82 73.3866C85.486 72.4592 88.4187 70.5795 92 70C91.9983 66.8741 92.2129 63.8897 91 61z"/>
<path style="fill:#8fbd7b; stroke:none;" d="M5 62L6 63L5 62z"/>
<path style="fill:#b8bdbd; stroke:none;" d="M57 62C55.4903 68.9634 58.6046 74.4808 66 75C63.2705 70.427 59.5504 66.805 57 62z"/>
<path style="fill:#779664; stroke:none;" d="M56 63L57 64L56 63z"/>
<path style="fill:#81bc63; stroke:none;" d="M92 63C92.0318 65.875 91.7923 68.0745 94 70C93.4052 67.6044 93.0094 65.233 92 63z"/>
<path style="fill:#f3f1f2; stroke:none;" d="M99 63C97.2264 66.7478 93.5471 69.2075 92.0239 73.0394C90.8686 75.9459 91.6315 79.0167 92 82L100 82C100 76.0987 101.295 68.4692 99 63z"/>
<path style="fill:#41831e; stroke:none;" d="M18 73C18.9845 70.6684 18.9813 68.5433 19 66C28.7049 67.1826 44.5484 74.9312 53 67C44.9261 67.1666 38.0454 66.8771 30 65.875C26.714 65.4657 22.5849 63.0732 19.3179 64.608C16.0634 66.1369 17.2343 70.3803 18 73z"/>
<path style="fill:#a3ca96; stroke:none;" d="M7 65L8 66L7 65z"/>
<path style="fill:#aab0b4; stroke:none;" d="M55 65C55.077 67.6451 54.9966 69.2659 57 71C56.6453 68.6585 56.2247 67.0132 55 65z"/>
<path style="fill:#e5ae93; stroke:none;" d="M98 65L99 66L98 65z"/>
<path style="fill:#91bf84; stroke:none;" d="M8 66L9 67L8 66z"/>
<path style="fill:#36751c; stroke:none;" d="M19 66C18.9417 68.7845 18.6479 71.2908 18 74C22.747 74.503 24.6973 71.2686 29.0394 70.5123C35.8493 69.3263 44.0308 74.4277 50 69C45.6383 69.5512 41.4112 70.3267 37 69.6998C30.9268 68.8368 25.1072 66.3883 19 66z"/>
<path style="fill:#959b9b; stroke:none;" d="M54 66C51.157 71.4125 52.6646 76.8291 58 80C57.0867 75.1041 56.3366 70.4484 54 66z"/>
<path style="fill:#d38575; stroke:none;" d="M97 66L98 67L97 66z"/>
<path style="fill:#8cb97a; stroke:none;" d="M9 67L10 68L9 67z"/>
<path style="fill:#d89283; stroke:none;" d="M96 67L97 68L96 67z"/>
<path style="fill:#90b97d; stroke:none;" d="M10 68L11 69L10 68z"/>
<path style="fill:#b4543f; stroke:none;" d="M93.6667 68.3333C93.2222 68.7778 94.2778 68.7222 94.3333 68.6667C94.7778 68.2222 93.7222 68.2778 93.6667 68.3333z"/>
<path style="fill:#e6b5a4; stroke:none;" d="M95 68L96 69L95 68z"/>
<path style="fill:#9ec48e; stroke:none;" d="M11 69L12 70L11 69z"/>
<path style="fill:#848c8f; stroke:none;" d="M51 69C48.7092 70.5098 46.4818 71.8366 44 73C46.1635 73.6756 47.7316 73.387 50 73L51 79C46.3642 79.0005 40.1669 78.0843 37 82C42.0221 80.8044 50.0018 82.6826 52 77L56 80C54.5311 76.3206 52.8993 72.4643 51 69z"/>
<path style="fill:#b5d1a5; stroke:none;" d="M12 70L13 71L12 70z"/>
<path style="fill:#2b6413; stroke:none;" d="M22 74C29.2755 78.3582 40.0549 75.9095 47 72C43.9425 70.729 41.2364 71.5325 38 71.3897C31.0624 71.0835 28.0276 69.5115 22 74z"/>
<path style="fill:#b9bdbc; stroke:none;" d="M69 76C72.63 80.8399 82.2126 79.7874 86 76L88 76C89.2963 75.1358 90.7907 72.5116 92 71L93 72C90.1287 68.0769 83.3849 75.5146 79.8657 76.5833C76.4402 77.6236 72.4773 76.2336 69 76z"/>
<path style="fill:#7aa466; stroke:none;" d="M14 71L15 72L14 71z"/>
<path style="fill:#a8adb0; stroke:none;" d="M57 71L57 75C60.9428 76.4137 64.3673 79.1386 68.2855 80.4514C76.544 83.2185 89.8071 80.1206 92 71C88.8743 73.6738 85.9127 76.8142 81.9097 78.1605C73.8088 80.885 64.0189 74.4175 57 71z"/>
<path style="fill:#aecea0; stroke:none;" d="M15 72L16 73L15 72z"/>
<path style="fill:#a3c392; stroke:none;" d="M17 73L18 74L17 73z"/>
<path style="fill:#97a5ab; stroke:none;" d="M33 77C33.6591 79.3581 34.2666 80.2432 36 82C40.8199 79.1889 45.5335 79.0036 51 79L50 73C44.164 73.7543 38.7344 75.8012 33 77z"/>
<path style="fill:#b0cfa3; stroke:none;" d="M19 74L20 75L19 74z"/>
<path style="fill:#b0c8a1; stroke:none;" d="M22 75L23 76L22 75z"/>
<path style="fill:#4b793b; stroke:none;" d="M23.6667 75.3333C23.2222 75.7778 24.2778 75.7222 24.3333 75.6667C24.7778 75.2222 23.7222 75.2778 23.6667 75.3333z"/>
<path style="fill:#648269; stroke:none;" d="M38.6667 75.3333C38.2222 75.7778 39.2778 75.7222 39.3333 75.6667C39.7778 75.2222 38.7222 75.2778 38.6667 75.3333z"/>
<path style="fill:#9ea4a2; stroke:none;" d="M57 75L58 81C66.3182 82.4084 82.1071 86.4054 88 78C82.0666 79.4054 76.3621 82.1325 70.0895 80.7006C65.4495 79.6414 61.7682 76.0811 57 75z"/>
<path style="fill:#ecddc9; stroke:none;" d="M90 75L90 78C90.6961 76.4463 90.6961 76.5537 90 75z"/>
<path style="fill:#a9bfa0; stroke:none;" d="M26.6667 76.3333C26.2222 76.7778 27.2778 76.7222 27.3333 76.6667C27.7778 76.2222 26.7222 76.2778 26.6667 76.3333z"/>
<path style="fill:#7e9874; stroke:none;" d="M28 76C29.506 76.683 30.3148 76.8259 32 77C30.494 76.317 29.6852 76.1741 28 76z"/>
<path style="fill:#5d7c5d; stroke:none;" d="M32 76C33.5061 76.683 34.3148 76.8259 36 77C34.494 76.317 33.6852 76.1741 32 76z"/>
<path style="fill:#789e6d; stroke:none;" d="M16 77C17.2484 77.6848 17.5484 77.7488 19 78C17.7516 77.3152 17.4516 77.2512 16 77z"/>
<path style="fill:#767c77; stroke:none;" d="M52 77C49.0469 82.0549 43.2256 81 38 81C40.6998 83.8864 43.4863 86.1863 47 88L47 84C52.5505 83.5834 56.6661 85.7837 62 86.6744C69.2435 87.884 77.4369 87.2939 84 84C79.6706 82.5741 74.5591 85.5055 70 85.8148C65.274 86.1354 60.7554 84.1113 56 84C55.4928 80.656 54.6013 79.1531 52 77z"/>
<path style="fill:#e4611f; stroke:none;" d="M89 77L86 86C90.2453 84.591 90.6255 80.8833 89 77z"/>
<path style="fill:#439527; stroke:none;" d="M15 78C14.8874 81.5251 13.3961 83.8632 12.7145 87.1698C12.0847 90.2252 12.9741 93.8694 13 97C10.9296 95.119 10.0289 93.6125 9 91C6.91113 98.1816 13.6149 99.4499 19 98C21.4311 100.782 25.4906 99.9996 29 100C26.1372 92.8978 29.7077 85.5585 21 82L23 79C20.2908 78.3521 17.7845 78.0583 15 78z"/>
<path style="fill:#85af77; stroke:none;" d="M21 78L22 79L21 78z"/>
<path style="fill:#d15923; stroke:none;" d="M88 78C85.8498 80.9451 83.9585 83.4716 83 87L89 87C87.7517 86.3152 87.4516 86.2512 86 86C86.9653 83.2705 88.4289 80.8565 88 78z"/>
<path style="fill:#da7443; stroke:none;" d="M90 78L90 84C90.9511 81.7147 90.9511 80.2853 90 78z"/>
<path style="fill:#fddfce; stroke:none;" d="M91 78L91 83C91.8299 80.9695 91.8299 80.0305 91 78z"/>
<path style="fill:#4b9c36; stroke:none;" d="M14 79C8.78692 83.9984 4.43199 88.5309 8 96C8.46754 94.1535 8.30126 92.9315 8 91C9.48005 93.593 10.4473 95.4675 13 97C12.9923 94.1102 12.5087 90.9419 12.9691 88.0895C13.5398 84.5543 15.4601 82.5804 14 79z"/>
<path style="fill:#acd1a1; stroke:none;" d="M13 80L14 81L13 80z"/>
<path style="fill:#32751e; stroke:none;" d="M21 80C22.6966 82.8613 25.7525 84.8638 26.9514 88.0401C28.2607 91.509 27.0069 95.3895 28 99C30.6071 91.9258 28.9428 82.2831 21 80z"/>
<path style="fill:#8a908c; stroke:none;" d="M56 80L56 84C60.1034 84.2102 63.9124 85.8147 68 85.9421C74.1548 86.1341 80.29 84.0508 86 82C81.3365 80.5663 75.8777 82.9278 71 82.9815C65.7689 83.039 61.0534 81.0564 56 80z"/>
<path style="fill:#8cb37e; stroke:none;" d="M10 81L11 82L10 81z"/>
<path style="fill:#b8d1b0; stroke:none;" d="M25 81L26 82L25 81z"/>
<path style="fill:#637757; stroke:none;" d="M26.6667 82.3333C26.2222 82.7778 27.2778 82.7222 27.3333 82.6667C27.7778 82.2222 26.7222 82.2778 26.6667 82.3333z"/>
<path style="fill:#37522e; stroke:none;" d="M28 82C29.506 82.683 30.3148 82.8259 32 83C30.494 82.317 29.6852 82.1741 28 82z"/>
<path style="fill:#96af8d; stroke:none;" d="M32 82L33 83L32 82z"/>
<path style="fill:#a3abaa; stroke:none;" d="M38.6667 82.3333C38.2222 82.7778 39.2778 82.7222 39.3333 82.6667C39.7778 82.2222 38.7222 82.2778 38.6667 82.3333z"/>
<path style="fill:#c3e1b6; stroke:none;" d="M92.6667 82.3333C92.2222 82.7778 93.2778 82.7222 93.3333 82.6667C93.7778 82.2222 92.7222 82.2778 92.6667 82.3333z"/>
<path style="fill:#80b16c; stroke:none;" d="M94 82C96.0521 82.8742 97.7472 82.9528 100 83C97.9479 82.1257 96.2528 82.0472 94 82z"/>
<path style="fill:#7faf72; stroke:none;" d="M8 83L8 86C8.6961 84.4463 8.6961 84.5537 8 83z"/>
<path style="fill:#2f6911; stroke:none;" d="M27 83C28.2437 87.7029 28.8852 91.1568 28 96C31.6195 93.5207 32.1471 89.1212 33 85L27 83z"/>
<path style="fill:#1f520d; stroke:none;" d="M28 83C29.7505 84.2549 30.8574 84.6137 33 85C31.4602 83.1969 30.4025 83.168 28 83z"/>
<path style="fill:#96b487; stroke:none;" d="M33 83L34 84L33 83z"/>
<path style="fill:#b9c0c1; stroke:none;" d="M40 83L41 84L40 83z"/>
<path style="fill:#6c706a; stroke:none;" d="M47 84L47 88C53.2391 84.598 57.0297 88.8048 63.0895 89.892C69.0007 90.9525 74.461 88.7718 80 87C75.1511 85.5086 69.1777 87.4438 64 86.8156C57.8772 86.0727 53.3354 82.9721 47 84z"/>
<path style="fill:#2f8912; stroke:none;" d="M91 83C93.1119 86.83 95.8395 86.9508 100 87L100 83L91 83z"/>
<path style="fill:#407826; stroke:none;" d="M33 84L32 90C33.495 87.8149 33.8888 86.508 33 84z"/>
<path style="fill:#bdd7b0; stroke:none;" d="M34 84L34 87C34.6961 85.4463 34.6961 85.5537 34 84z"/>
<path style="fill:#acb2b5; stroke:none;" d="M41 84L42 85L41 84z"/>
<path style="fill:#287b0f; stroke:none;" d="M90 84L86 91L100 89L100 87C96.0896 86.8761 93.4155 85.8793 90 84z"/>
<path style="fill:#bfc2c3; stroke:none;" d="M42 85L43 86L42 85z"/>
<path style="fill:#773912; stroke:none;" d="M81 85C81.1767 88.4364 82.7227 88.741 86 89C84.5982 87.6492 83.8236 86.7457 83 85L81 85z"/>
<path style="fill:#516009; stroke:none;" d="M89.3333 85.6667C89.2778 85.7222 89.2222 86.7778 89.6667 86.3333C89.7222 86.2778 89.7778 85.2222 89.3333 85.6667z"/>
<path style="fill:#9dc491; stroke:none;" d="M7 86L8 87L7 86z"/>
<path style="fill:#61695e; stroke:none;" d="M48 86C48 87.7968 48.0143 87.5215 49 89C52.6673 88.5904 56.3096 88.9719 60 89C56.5442 86.2806 52.3132 86.089 48 86z"/>
<path style="fill:#a6c49c; stroke:none;" d="M6 87L7 88L6 87z"/>
<path style="fill:#312c0a; stroke:none;" d="M75 89C78.6567 90.0809 82.1992 89.9996 86 90C82.248 88.0298 78.844 86.7309 75 89z"/>
<path style="fill:#a74313; stroke:none;" d="M83 87C84.769 87.7789 86.0359 87.9124 88 88C86.231 87.2211 84.9641 87.0876 83 87z"/>
<path style="fill:#c3dab8; stroke:none;" d="M5 88L5 91C5.6961 89.4463 5.6961 89.5537 5 88z"/>
<path style="fill:#9bbb88; stroke:none;" d="M33 88L34 89L33 88z"/>
<path style="fill:#9aa4b0; stroke:none;" d="M48 88L47 95C49.4758 93.6609 50.52 92.4123 52 90L48 88z"/>
<path style="fill:#3e573f; stroke:none;" d="M50 88C53.377 91.8654 63.0726 90.9967 68 91C62.7505 88.7767 55.6953 88.7204 50 88z"/>
<path style="fill:#395509; stroke:none;" d="M86 88L86 90C87.6352 89.4549 87.4549 89.6352 88 88L86 88z"/>
<path style="fill:#bcbfc1; stroke:none;" d="M71.6667 89.3333C71.2222 89.7778 72.2778 89.7222 72.3333 89.6667C72.7778 89.2222 71.7222 89.2778 71.6667 89.3333z"/>
<path style="fill:#e7e9e0; stroke:none;" d="M73.6667 89.3333C73.2222 89.7778 74.2778 89.7222 74.3333 89.6667C74.7778 89.2222 73.7222 89.2778 73.6667 89.3333z"/>
<path style="fill:#b6b8a1; stroke:none;" d="M75 89L76 90L75 89z"/>
<path style="fill:#215d0c; stroke:none;" d="M90 91C92.998 93.5785 96.1734 95.0352 100 96L100 89C96.3505 89.0774 93.3695 89.5779 90 91z"/>
<path style="fill:#b6cbaa; stroke:none;" d="M32 90L33 91L32 90z"/>
<path style="fill:#306819; stroke:none;" d="M50 95C56.1642 93.8563 63.8409 94.0664 69 98C70.875 97.4529 72.2553 96.89 74 96C68.9378 90.8012 53.1906 86.3222 50 95z"/>
<path style="fill:#ebf2eb; stroke:none;" d="M69 90C70.5061 90.683 71.3148 90.8259 73 91C71.494 90.317 70.6852 90.1741 69 90z"/>
<path style="fill:#a8b3a0; stroke:none;" d="M73 90L74 91L73 90z"/>
<path style="fill:#637158; stroke:none;" d="M74 90L75 91L74 90z"/>
<path style="fill:#213813; stroke:none;" d="M66 91C68.0219 93.3508 70.9946 93.4301 74 94C74 91.7042 74.8735 92.0042 77 91C73.5437 90.2575 69.6547 91.2949 66 91z"/>
<path style="fill:#234b1a; stroke:none;" d="M73 92L73 95C77.6212 94.3747 81.7795 92.9649 86 91C81.5742 89.1435 77.3875 90.631 73 92z"/>
<path style="fill:#6c8d59; stroke:none;" d="M31 91L32 92L31 91z"/>
<path style="fill:#bac1c7; stroke:none;" d="M47.3333 91.6667C47.2778 91.7222 47.2222 92.7778 47.6667 92.3333C47.7222 92.2778 47.7778 91.2222 47.3333 91.6667z"/>
<path style="fill:#aebba6; stroke:none;" d="M69.6667 91.3333C69.2222 91.7778 70.2778 91.7222 70.3333 91.6667C70.7778 91.2222 69.7222 91.2778 69.6667 91.3333z"/>
<path style="fill:#708269; stroke:none;" d="M71 91L72 92L71 91z"/>
<path style="fill:#527c18; stroke:none;" d="M85 91C86.769 91.7789 88.0359 91.9124 90 92C88.231 91.2211 86.9641 91.0876 85 91z"/>
<path style="fill:#95b28a; stroke:none;" d="M31 92L32 93L31 92z"/>
<path style="fill:#65916b; stroke:none;" d="M50 92L51 93L50 92z"/>
<path style="fill:#604113; stroke:none;" d="M82.6667 92.3333C82.2222 92.7778 83.2778 92.7222 83.3333 92.6667C83.7778 92.2222 82.7222 92.2778 82.6667 92.3333z"/>
<path style="fill:#b94022; stroke:none;" d="M84 92C86.0521 92.8743 87.7472 92.9528 90 93C87.9479 92.1258 86.2528 92.0472 84 92z"/>
<path style="fill:#5a460e; stroke:none;" d="M90.6667 92.3333C90.2222 92.7778 91.2778 92.7222 91.3333 92.6667C91.7778 92.2222 90.7222 92.2778 90.6667 92.3333z"/>
<path style="fill:#abd09e; stroke:none;" d="M6 93L7 94L6 93z"/>
<path style="fill:#872022; stroke:none;" d="M73 100C76.8673 98.794 79.4952 96.1307 82 93C78.0632 94.5255 75.5034 96.6102 73 100z"/>
<path style="fill:#dc1620; stroke:none;" d="M80 100C82.6441 98.192 83.2531 96.0815 84 93C80.8321 94.7435 80.2688 96.435 80 100z"/>
<path style="fill:#f52228; stroke:none;" d="M82 100L87 100C87.6273 96.9249 88.2813 95.5733 91 94C85.5653 91.7375 83.2197 94.9863 82 100z"/>
<path style="fill:#f73233; stroke:none;" d="M87 100L100 100C95.9611 94.565 88.0844 90.5532 87 100z"/>
<path style="fill:#604a12; stroke:none;" d="M92.6667 93.3333C92.2222 93.7778 93.2778 93.7222 93.3333 93.6667C93.7778 93.2222 92.7222 93.2778 92.6667 93.3333z"/>
<path style="fill:#65864e; stroke:none;" d="M30 94L31 95L30 94z"/>
<path style="fill:#38781b; stroke:none;" d="M49 94C51.7087 97.5581 55.8964 96.7463 60 97.1705C63.5619 97.5387 66.6976 98.7234 70 100C67.1262 92.8501 55.4058 94.3358 49 94z"/>
<path style="fill:#4b5533; stroke:none;" d="M76 94C77.2483 94.6848 77.5484 94.7488 79 95C77.7516 94.3152 77.4516 94.2512 76 94z"/>
<path style="fill:#a24523; stroke:none;" d="M94 94L95 95L94 94z"/>
<path style="fill:#b8cca7; stroke:none;" d="M30 95L31 96L30 95z"/>
<path style="fill:#9fbe95; stroke:none;" d="M46 95L47 96L46 95z"/>
<path style="fill:#459422; stroke:none;" d="M39 99C43.6505 100.948 47.3258 98.3801 52.0147 98.054C57.6493 97.6622 62.4918 99.8374 68 100L68 98C57.5751 97.1773 48.7395 94.3753 39 99z"/>
<path style="fill:#7f8073; stroke:none;" d="M74 95L75 97C76.6352 96.4549 76.4549 96.6352 77 95L74 95z"/>
<path style="fill:#445427; stroke:none;" d="M96.6667 95.3333C96.2222 95.7778 97.2778 95.7222 97.3333 95.6667C97.7778 95.2222 96.7222 95.2778 96.6667 95.3333z"/>
<path style="fill:#88ac78; stroke:none;" d="M29 96L30 97L29 96z"/>
<path style="fill:#c1d8b7; stroke:none;" d="M43 96L44 97L43 96z"/>
<path style="fill:#7aa269; stroke:none;" d="M44 96L45 97L44 96z"/>
<path style="fill:#899591; stroke:none;" d="M70 100C72.7817 99.1875 73.6274 98.5473 75 96C72.3626 96.939 71.3819 97.5797 70 100z"/>
<path style="fill:#b51d22; stroke:none;" d="M76 100L80 100L80 96C77.7511 97.1535 77.1535 97.7511 76 100z"/>
<path style="fill:#e8a89f; stroke:none;" d="M97 96L98 97L97 96z"/>
<path style="fill:#d4ddd0; stroke:none;" d="M98 96C98.6836 97.58 98.8048 97.7772 100 99L100 96L98 96z"/>
<path style="fill:#9bc48a; stroke:none;" d="M9 97L10 98L9 97z"/>
<path style="fill:#9fc990; stroke:none;" d="M29.3333 97.6667C29.2778 97.7222 29.2222 98.7778 29.6667 98.3333C29.7222 98.2778 29.7778 97.2222 29.3333 97.6667z"/>
<path style="fill:#bcd2b3; stroke:none;" d="M41 97L42 98L41 97z"/>
<path style="fill:#8ab579; stroke:none;" d="M10 98L11 99L10 98z"/>
<path style="fill:#397b1b; stroke:none;" d="M13 99C15.5292 100.039 17.1756 100.093 19 98L13 99z"/>
<path style="fill:#7da070; stroke:none;" d="M40 98L41 99L40 98z"/>
<path style="fill:#56ae32; stroke:none;" d="M47 98L47 100L62 100L62 98L47 98z"/>
<path style="fill:#9bbd88; stroke:none;" d="M11 99L12 100L11 99z"/>
<path style="fill:#74a35c; stroke:none;" d="M29 99L30 100L29 99z"/>
<path style="fill:#90b182; stroke:none;" d="M38 99L39 100L38 99z"/>
</svg>
